<svg id="Groupe_167" data-name="Groupe 167" xmlns="http://www.w3.org/2000/svg" width="32.685" height="32.184" viewBox="0 0 32.685 32.184">
  <path  d="M298.451,508.668q-3.784.617-7.6,1.137Q294.667,509.285,298.451,508.668Zm0,0" transform="translate(-265.766 -480.425)" fill="#fff"/>
  <path  d="M302.958,507.793c-1.206.222-2.412.425-3.618.633C300.546,508.218,301.752,508.015,302.958,507.793Zm0,0" transform="translate(-271.595 -480.585)" fill="#fff"/>
  <path  d="M286.513,510.34q-4.429.5-8.9.878Q282.08,510.843,286.513,510.34Zm0,0" transform="translate(-253.855 -480.12)" fill="#fff"/>
  <path  d="M290.715,509.738c-1.418.189-2.846.365-4.269.531C287.868,510.1,289.3,509.928,290.715,509.738Zm0,0" transform="translate(-259.773 -480.23)" fill="#fff"/>
  <path  d="M309.861,506.41c-1.063.226-2.13.453-3.2.67C307.731,506.863,308.8,506.637,309.861,506.41Zm0,0" transform="translate(-278.267 -480.838)" fill="#fff"/>
  <path  d="M327.063,502.113c-.859.245-1.719.476-2.578.716C325.344,502.589,326.2,502.358,327.063,502.113Zm0,0" transform="translate(-294.697 -481.624)" fill="#fff"/>
  <path  d="M321.868,503.543c-.933.245-1.871.494-2.809.73Q320.465,503.92,321.868,503.543Zm0,0" transform="translate(-289.724 -481.362)" fill="#fff"/>
  <path  d="M315.051,505.254c-.989.231-1.987.448-2.985.67C313.064,505.7,314.062,505.485,315.051,505.254Zm0,0" transform="translate(-283.237 -481.05)" fill="#fff"/>
  <path  d="M278.267,511.09q-2.391.2-4.787.36Q275.879,511.291,278.267,511.09Zm0,0" transform="translate(-247.786 -479.983)" fill="#fff"/>
  <path  d="M32.185,16.092A16.092,16.092,0,1,0,16.092,32.185h.283V19.654H12.918V15.625h3.457V12.66c0-3.439,2.1-5.31,5.167-5.31a28.461,28.461,0,0,1,3.1.158V11.1H22.526c-1.669,0-1.992.793-1.992,1.957v2.566h3.99L24,19.654H20.53V31.563A16.1,16.1,0,0,0,32.185,16.092Zm0,0" transform="translate(-0.001 -0.001)" fill="#fff"/>
  <path  d="M274.381,511.43q-4.727.305-9.49.471Q269.652,511.742,274.381,511.43Zm0,0" transform="translate(-242.019 -479.92)" fill="#fff"/>
  <path  d="M265.531,511.836q-2.509.083-5.027.125Q263.02,511.919,265.531,511.836Zm0,0" transform="translate(-235.627 -479.846)" fill="#fff"/>
</svg>
