<svg xmlns="http://www.w3.org/2000/svg" width="189.575" height="72.266" viewBox="0 0 189.575 72.266">
  <g id="_1"  transform="translate(0)">
    <g id="Logo_8"  transform="translate(0 0)">
      <path id="Combined_Shape"  d="M32.323,72.266a7.7,7.7,0,0,1-3.846-1.031L3.846,57.016A7.715,7.715,0,0,1,0,50.354V21.912a7.715,7.715,0,0,1,3.846-6.661L28.477,1.03a7.7,7.7,0,0,1,7.692,0L60.8,15.251a7.714,7.714,0,0,1,3.846,6.661V50.354A7.713,7.713,0,0,1,60.8,57.016L36.168,71.235A7.7,7.7,0,0,1,32.323,72.266ZM26.641,42.42c2.543,2.3,3.8,4.427,3.853,6.511.044,1.84-.831,3.688-2.755,5.816h.01a6.177,6.177,0,1,0,9.145,0h.01c-1.924-2.128-2.8-3.977-2.755-5.816.05-2.085,1.31-4.214,3.853-6.511h-.015a8.444,8.444,0,0,0,0-12.574H38c-2.543-2.3-3.8-4.429-3.853-6.512-.044-1.839.831-3.688,2.755-5.816H36.9a6.177,6.177,0,1,0-9.145,0h-.01c1.924,2.129,2.8,3.977,2.755,5.816-.05,2.084-1.31,4.214-3.853,6.512h.015a8.447,8.447,0,0,0,0,12.574h-.014ZM44.685,29.97h0c2.03,2.243,2.895,4.2,2.723,6.164.172,1.96-.693,3.919-2.723,6.164h.01a6.176,6.176,0,1,0,9.147,0h.009c-2.029-2.246-2.893-4.205-2.722-6.164-.172-1.961.693-3.92,2.721-6.164h-.009a6.176,6.176,0,1,0-9.147,0Zm-33.891,0h0c2.029,2.245,2.895,4.2,2.723,6.164.172,1.959-.694,3.917-2.723,6.164h.01a6.177,6.177,0,1,0,9.145,0h.01c-2.03-2.247-2.895-4.206-2.723-6.164-.172-1.96.693-3.919,2.723-6.164h-.01a6.177,6.177,0,1,0-9.145,0Z" fill="#0d6aa5"/>
      <path id="Fill_7"  d="M245.482,3974.844v18.367c0,1.213.472,1.921,1.449,1.921a4.206,4.206,0,0,0,1.887-.54l.236,3.741a10.986,10.986,0,0,1-3.977.775c-2.629,0-4.314-1.28-4.314-4.752v-19.513h4.718" transform="translate(-160.144 -3952.118)" fill="#0d6aa5"/>
      <path id="Fill_8"  d="M17.592,18.265c-2.019,0-3.243-.838-3.741-2.561a7.336,7.336,0,0,1-5.594,2.528C3.4,18.232,0,14.5,0,9.166A9.823,9.823,0,0,1,2.283,2.573,7.77,7.77,0,0,1,8.257,0a7.251,7.251,0,0,1,5.257,1.818V.3h4.718V12.5c0,1.2.4,1.785,1.214,1.785a3.655,3.655,0,0,0,1.786-.54l.2,3.741A9.746,9.746,0,0,1,17.592,18.265ZM9.571,4.11C6.664,4.11,4.785,6.1,4.785,9.166a4.628,4.628,0,0,0,4.785,4.987,5.96,5.96,0,0,0,3.944-1.584V5.694A5.759,5.759,0,0,0,9.571,4.11Z" transform="translate(90.459 28.726)" fill="#0d6aa5"/>
      <path id="Fill_9"  d="M10.01,24.265a7.181,7.181,0,0,1-5.29-1.92v1.584H0V0H4.719V7.786A7.907,7.907,0,0,1,10.01,6a7.843,7.843,0,0,1,6,2.552A9.688,9.688,0,0,1,18.3,15.1C18.3,20.5,14.891,24.265,10.01,24.265ZM8.7,10.11a5.829,5.829,0,0,0-3.977,1.652v6.774A5.9,5.9,0,0,0,8.7,20.153a4.638,4.638,0,0,0,3.479-1.39A5.214,5.214,0,0,0,13.482,15.1a5.106,5.106,0,0,0-1.306-3.619A4.67,4.67,0,0,0,8.7,10.11Z" transform="translate(114.758 22.726)" fill="#0d6aa5"/>
      <path id="Fill_10"  d="M9.436,18.569a9.545,9.545,0,0,1-6.765-2.633A9.144,9.144,0,0,1,0,9.335,9.3,9.3,0,0,1,2.671,2.658,9.494,9.494,0,0,1,9.436,0a9.6,9.6,0,0,1,6.825,2.658,9.272,9.272,0,0,1,2.679,6.677,9.12,9.12,0,0,1-2.679,6.6A9.652,9.652,0,0,1,9.436,18.569Zm0-14.256A4.792,4.792,0,0,0,4.55,9.335a4.743,4.743,0,0,0,4.886,4.921A4.775,4.775,0,0,0,14.39,9.335,4.824,4.824,0,0,0,9.436,4.314Z" transform="translate(135.384 28.557)" fill="#0d6aa5"/>
      <path id="Fill_11"  d="M296.409,3984.784c0-1.044-.236-1.786-1.213-1.786a4.051,4.051,0,0,0-1.786.505l-.2-3.707a8.613,8.613,0,0,1,3.842-.775c2.022,0,3.336.81,3.842,2.663a4.493,4.493,0,0,1,4.415-2.663,4.349,4.349,0,0,1,3.168,1.012l-.674,4.246a5,5,0,0,0-3.235-.91c-2.258,0-3.134,1.954-3.438,4.01v9.571h-4.718v-12.166" transform="translate(-137.266 -3950.296)" fill="#0d6aa5"/>
      <path id="Fill_12"  d="M9.6,18.569c-3.161,0-5.614-.9-7.292-2.671A9.319,9.319,0,0,1,0,9.335,9.459,9.459,0,0,1,2.528,2.7,9.148,9.148,0,0,1,9.3,0a8.1,8.1,0,0,1,5.952,2.144,7.235,7.235,0,0,1,1.933,5.2,16.475,16.475,0,0,1-.37,3.437H4.853c.453,2.548,2.1,3.842,4.886,3.842a9.606,9.606,0,0,0,5.494-1.82l1.786,3.371A11.72,11.72,0,0,1,9.6,18.569ZM9.2,3.909a4.369,4.369,0,0,0-2.927.973A3.923,3.923,0,0,0,4.987,7.144h7.65a3.605,3.605,0,0,0,.034-.606C12.672,5.267,11.76,3.909,9.2,3.909Z" transform="translate(172.388 28.557)" fill="#0d6aa5"/>
    </g>
  </g>
</svg>
